<svg width="13" height="16" viewBox="0 0 13 16" fill="none" xmlns="http://www.w3.org/2000/svg"><path fill-rule="evenodd" clip-rule="evenodd" d="M1.48 1.49A2.7 2.7 0 0 0 .05 4.32L.4 6.09c.93 3.13 2.5 5.77 4.83 8.11l1.4 1.2c.86.72 2.17.8 3.24.2l2.23-1.25c.88-.49 1.17-1.53.63-2.26L10.8 9.5c-.52-.7-1.6-.82-2.37-.26l-1.38.99a5.23 5.23 0 0 1-2.17-3.67l1.56-.66c.9-.37 1.33-1.33.96-2.11L6.04.85C5.66.03 4.58-.25 3.7.25L1.48 1.48Zm-.2 2.53c-.12-.6.2-1.22.78-1.55L4.3 1.23c.22-.13.5-.06.59.15L6.24 4.3c.1.2-.02.43-.24.53L3.57 5.86l.02.42a6.28 6.28 0 0 0 3.07 5.16l.36.22 2.13-1.53c.2-.14.46-.11.59.06l1.93 2.61c.14.19.07.45-.15.57l-2.23 1.25c-.59.33-1.3.28-1.77-.12l-1.4-1.19A20.91 20.91 0 0 1 1.64 5.8l-.36-1.77Z" fill="#7859CF"/></svg>